<mxfile host="app.diagrams.net" modified="2024-02-14T14:06:11.274Z" agent="Mozilla/5.0 (Windows NT 10.0; Win64; x64) AppleWebKit/537.36 (KHTML, like Gecko) Chrome/121.0.0.0 Safari/537.36" etag="rJmlU41hY4U7gdiQWsso" version="23.1.4" type="device">
  <diagram name="Page-1" id="NmEGm7qLabf1iDeqjK5H">
    <mxGraphModel dx="2926" dy="1408" grid="1" gridSize="10" guides="1" tooltips="1" connect="1" arrows="1" fold="1" page="0" pageScale="1" pageWidth="850" pageHeight="1100" math="0" shadow="0">
      <root>
        <mxCell id="0" />
        <mxCell id="1" parent="0" />
        <mxCell id="FoGuGYI1JHkb72fVWPnY-4" style="edgeStyle=orthogonalEdgeStyle;rounded=0;orthogonalLoop=1;jettySize=auto;html=1;exitX=0.5;exitY=1;exitDx=0;exitDy=0;" edge="1" parent="1" source="FN90rtZUZx1SmPpYL9_7-1">
          <mxGeometry relative="1" as="geometry">
            <mxPoint x="-260" as="targetPoint" />
          </mxGeometry>
        </mxCell>
        <mxCell id="FN90rtZUZx1SmPpYL9_7-1" value="&lt;h3&gt;&lt;font size=&quot;1&quot; style=&quot;&quot;&gt;&lt;b style=&quot;font-size: 20px;&quot;&gt;Start&lt;/b&gt;&lt;/font&gt;&lt;/h3&gt;" style="ellipse;whiteSpace=wrap;html=1;" parent="1" vertex="1">
          <mxGeometry x="-320" y="-120" width="120" height="80" as="geometry" />
        </mxCell>
        <mxCell id="FoGuGYI1JHkb72fVWPnY-6" style="edgeStyle=orthogonalEdgeStyle;rounded=0;orthogonalLoop=1;jettySize=auto;html=1;exitX=0.5;exitY=1;exitDx=0;exitDy=0;" edge="1" parent="1" source="FoGuGYI1JHkb72fVWPnY-1">
          <mxGeometry relative="1" as="geometry">
            <mxPoint x="-265" y="130" as="targetPoint" />
          </mxGeometry>
        </mxCell>
        <mxCell id="FoGuGYI1JHkb72fVWPnY-1" value="&lt;b style=&quot;font-size: 18px;&quot;&gt;Read Three Number&lt;br&gt;x,y,z&lt;/b&gt;" style="shape=parallelogram;perimeter=parallelogramPerimeter;whiteSpace=wrap;html=1;fixedSize=1;" vertex="1" parent="1">
          <mxGeometry x="-410" y="10" width="290" height="60" as="geometry" />
        </mxCell>
        <mxCell id="FoGuGYI1JHkb72fVWPnY-8" style="edgeStyle=orthogonalEdgeStyle;rounded=0;orthogonalLoop=1;jettySize=auto;html=1;exitX=0;exitY=0.5;exitDx=0;exitDy=0;entryX=0.5;entryY=0;entryDx=0;entryDy=0;" edge="1" parent="1" source="FoGuGYI1JHkb72fVWPnY-5" target="FoGuGYI1JHkb72fVWPnY-7">
          <mxGeometry relative="1" as="geometry">
            <Array as="points">
              <mxPoint x="-480" y="180" />
              <mxPoint x="-480" y="280" />
            </Array>
          </mxGeometry>
        </mxCell>
        <mxCell id="FoGuGYI1JHkb72fVWPnY-33" value="YES" style="edgeLabel;html=1;align=center;verticalAlign=middle;resizable=0;points=[];" vertex="1" connectable="0" parent="FoGuGYI1JHkb72fVWPnY-8">
          <mxGeometry x="-0.399" y="-2" relative="1" as="geometry">
            <mxPoint as="offset" />
          </mxGeometry>
        </mxCell>
        <mxCell id="FoGuGYI1JHkb72fVWPnY-10" style="edgeStyle=orthogonalEdgeStyle;rounded=0;orthogonalLoop=1;jettySize=auto;html=1;exitX=1;exitY=0.5;exitDx=0;exitDy=0;" edge="1" parent="1" source="FoGuGYI1JHkb72fVWPnY-5" target="FoGuGYI1JHkb72fVWPnY-9">
          <mxGeometry relative="1" as="geometry">
            <Array as="points">
              <mxPoint x="-40" y="180" />
            </Array>
          </mxGeometry>
        </mxCell>
        <mxCell id="FoGuGYI1JHkb72fVWPnY-34" value="NO" style="edgeLabel;html=1;align=center;verticalAlign=middle;resizable=0;points=[];" vertex="1" connectable="0" parent="FoGuGYI1JHkb72fVWPnY-10">
          <mxGeometry x="-0.4782" y="3" relative="1" as="geometry">
            <mxPoint as="offset" />
          </mxGeometry>
        </mxCell>
        <mxCell id="FoGuGYI1JHkb72fVWPnY-5" value="&lt;font style=&quot;font-size: 18px;&quot;&gt;x&amp;gt;=y&lt;/font&gt;" style="rhombus;whiteSpace=wrap;html=1;" vertex="1" parent="1">
          <mxGeometry x="-305" y="140" width="80" height="80" as="geometry" />
        </mxCell>
        <mxCell id="FoGuGYI1JHkb72fVWPnY-12" style="edgeStyle=orthogonalEdgeStyle;rounded=0;orthogonalLoop=1;jettySize=auto;html=1;exitX=0;exitY=0.5;exitDx=0;exitDy=0;entryX=0.5;entryY=0;entryDx=0;entryDy=0;" edge="1" parent="1" source="FoGuGYI1JHkb72fVWPnY-7" target="FoGuGYI1JHkb72fVWPnY-11">
          <mxGeometry relative="1" as="geometry">
            <Array as="points">
              <mxPoint x="-590" y="320" />
              <mxPoint x="-590" y="440" />
            </Array>
          </mxGeometry>
        </mxCell>
        <mxCell id="FoGuGYI1JHkb72fVWPnY-29" value="YES" style="edgeLabel;html=1;align=center;verticalAlign=middle;resizable=0;points=[];" vertex="1" connectable="0" parent="FoGuGYI1JHkb72fVWPnY-12">
          <mxGeometry x="-0.667" y="-3" relative="1" as="geometry">
            <mxPoint as="offset" />
          </mxGeometry>
        </mxCell>
        <mxCell id="FoGuGYI1JHkb72fVWPnY-14" style="edgeStyle=orthogonalEdgeStyle;rounded=0;orthogonalLoop=1;jettySize=auto;html=1;exitX=1;exitY=0.5;exitDx=0;exitDy=0;entryX=0.5;entryY=0;entryDx=0;entryDy=0;" edge="1" parent="1" source="FoGuGYI1JHkb72fVWPnY-7" target="FoGuGYI1JHkb72fVWPnY-13">
          <mxGeometry relative="1" as="geometry">
            <Array as="points">
              <mxPoint x="-360" y="320" />
              <mxPoint x="-360" y="440" />
            </Array>
          </mxGeometry>
        </mxCell>
        <mxCell id="FoGuGYI1JHkb72fVWPnY-30" value="NO" style="edgeLabel;html=1;align=center;verticalAlign=middle;resizable=0;points=[];" vertex="1" connectable="0" parent="FoGuGYI1JHkb72fVWPnY-14">
          <mxGeometry x="-0.6764" y="3" relative="1" as="geometry">
            <mxPoint as="offset" />
          </mxGeometry>
        </mxCell>
        <mxCell id="FoGuGYI1JHkb72fVWPnY-7" value="&lt;font style=&quot;font-size: 18px;&quot;&gt;x&amp;gt;=z&lt;/font&gt;" style="rhombus;whiteSpace=wrap;html=1;" vertex="1" parent="1">
          <mxGeometry x="-520" y="280" width="80" height="80" as="geometry" />
        </mxCell>
        <mxCell id="FoGuGYI1JHkb72fVWPnY-17" style="edgeStyle=orthogonalEdgeStyle;rounded=0;orthogonalLoop=1;jettySize=auto;html=1;exitX=0;exitY=0.5;exitDx=0;exitDy=0;entryX=0.5;entryY=0;entryDx=0;entryDy=0;" edge="1" parent="1" source="FoGuGYI1JHkb72fVWPnY-9" target="FoGuGYI1JHkb72fVWPnY-16">
          <mxGeometry relative="1" as="geometry" />
        </mxCell>
        <mxCell id="FoGuGYI1JHkb72fVWPnY-31" value="YES" style="edgeLabel;html=1;align=center;verticalAlign=middle;resizable=0;points=[];" vertex="1" connectable="0" parent="FoGuGYI1JHkb72fVWPnY-17">
          <mxGeometry x="-0.6364" y="1" relative="1" as="geometry">
            <mxPoint as="offset" />
          </mxGeometry>
        </mxCell>
        <mxCell id="FoGuGYI1JHkb72fVWPnY-18" style="edgeStyle=orthogonalEdgeStyle;rounded=0;orthogonalLoop=1;jettySize=auto;html=1;entryX=0.558;entryY=-0.039;entryDx=0;entryDy=0;entryPerimeter=0;" edge="1" parent="1" target="FoGuGYI1JHkb72fVWPnY-15">
          <mxGeometry relative="1" as="geometry">
            <mxPoint x="80" y="430" as="targetPoint" />
            <mxPoint y="320" as="sourcePoint" />
            <Array as="points">
              <mxPoint x="79" y="320" />
            </Array>
          </mxGeometry>
        </mxCell>
        <mxCell id="FoGuGYI1JHkb72fVWPnY-32" value="NO" style="edgeLabel;html=1;align=center;verticalAlign=middle;resizable=0;points=[];" vertex="1" connectable="0" parent="FoGuGYI1JHkb72fVWPnY-18">
          <mxGeometry x="-0.6908" y="-1" relative="1" as="geometry">
            <mxPoint as="offset" />
          </mxGeometry>
        </mxCell>
        <mxCell id="FoGuGYI1JHkb72fVWPnY-9" value="&lt;font style=&quot;font-size: 18px;&quot;&gt;x&amp;gt;=z&lt;/font&gt;" style="rhombus;whiteSpace=wrap;html=1;" vertex="1" parent="1">
          <mxGeometry x="-80" y="280" width="80" height="80" as="geometry" />
        </mxCell>
        <mxCell id="FoGuGYI1JHkb72fVWPnY-19" style="edgeStyle=orthogonalEdgeStyle;rounded=0;orthogonalLoop=1;jettySize=auto;html=1;exitX=0.5;exitY=1;exitDx=0;exitDy=0;" edge="1" parent="1" source="FoGuGYI1JHkb72fVWPnY-11">
          <mxGeometry relative="1" as="geometry">
            <mxPoint x="-300" y="690" as="targetPoint" />
            <Array as="points">
              <mxPoint x="-590" y="690" />
              <mxPoint x="-309" y="690" />
            </Array>
          </mxGeometry>
        </mxCell>
        <mxCell id="FoGuGYI1JHkb72fVWPnY-11" value="&lt;font style=&quot;font-size: 18px;&quot;&gt;Print X is large&lt;/font&gt;" style="shape=parallelogram;perimeter=parallelogramPerimeter;whiteSpace=wrap;html=1;fixedSize=1;" vertex="1" parent="1">
          <mxGeometry x="-670" y="440" width="160" height="40" as="geometry" />
        </mxCell>
        <mxCell id="FoGuGYI1JHkb72fVWPnY-27" style="edgeStyle=orthogonalEdgeStyle;rounded=0;orthogonalLoop=1;jettySize=auto;html=1;exitX=0.5;exitY=1;exitDx=0;exitDy=0;entryX=0.5;entryY=0;entryDx=0;entryDy=0;" edge="1" parent="1" source="FoGuGYI1JHkb72fVWPnY-13" target="FoGuGYI1JHkb72fVWPnY-20">
          <mxGeometry relative="1" as="geometry" />
        </mxCell>
        <mxCell id="FoGuGYI1JHkb72fVWPnY-13" value="&lt;font style=&quot;font-size: 18px;&quot;&gt;Print Z is large&lt;/font&gt;" style="shape=parallelogram;perimeter=parallelogramPerimeter;whiteSpace=wrap;html=1;fixedSize=1;" vertex="1" parent="1">
          <mxGeometry x="-440" y="440" width="160" height="40" as="geometry" />
        </mxCell>
        <mxCell id="FoGuGYI1JHkb72fVWPnY-21" style="edgeStyle=orthogonalEdgeStyle;rounded=0;orthogonalLoop=1;jettySize=auto;html=1;exitX=0.5;exitY=1;exitDx=0;exitDy=0;" edge="1" parent="1" source="FoGuGYI1JHkb72fVWPnY-15">
          <mxGeometry relative="1" as="geometry">
            <mxPoint x="-210" y="690" as="targetPoint" />
            <Array as="points">
              <mxPoint x="70" y="690" />
            </Array>
          </mxGeometry>
        </mxCell>
        <mxCell id="FoGuGYI1JHkb72fVWPnY-15" value="&lt;font style=&quot;font-size: 18px;&quot;&gt;Print Z is large&lt;/font&gt;" style="shape=parallelogram;perimeter=parallelogramPerimeter;whiteSpace=wrap;html=1;fixedSize=1;" vertex="1" parent="1">
          <mxGeometry x="-10" y="440" width="160" height="40" as="geometry" />
        </mxCell>
        <mxCell id="FoGuGYI1JHkb72fVWPnY-28" style="edgeStyle=orthogonalEdgeStyle;rounded=0;orthogonalLoop=1;jettySize=auto;html=1;exitX=0.5;exitY=1;exitDx=0;exitDy=0;" edge="1" parent="1" source="FoGuGYI1JHkb72fVWPnY-16">
          <mxGeometry relative="1" as="geometry">
            <mxPoint x="-250" y="650" as="targetPoint" />
          </mxGeometry>
        </mxCell>
        <mxCell id="FoGuGYI1JHkb72fVWPnY-16" value="&lt;font style=&quot;font-size: 18px;&quot;&gt;Print Y is large&lt;/font&gt;" style="shape=parallelogram;perimeter=parallelogramPerimeter;whiteSpace=wrap;html=1;fixedSize=1;" vertex="1" parent="1">
          <mxGeometry x="-225" y="440" width="160" height="40" as="geometry" />
        </mxCell>
        <mxCell id="FoGuGYI1JHkb72fVWPnY-23" style="edgeStyle=orthogonalEdgeStyle;rounded=0;orthogonalLoop=1;jettySize=auto;html=1;" edge="1" parent="1" source="FoGuGYI1JHkb72fVWPnY-20">
          <mxGeometry relative="1" as="geometry">
            <mxPoint x="-300" y="690" as="targetPoint" />
          </mxGeometry>
        </mxCell>
        <mxCell id="FoGuGYI1JHkb72fVWPnY-24" style="edgeStyle=orthogonalEdgeStyle;rounded=0;orthogonalLoop=1;jettySize=auto;html=1;exitX=0.5;exitY=1;exitDx=0;exitDy=0;" edge="1" parent="1" source="FoGuGYI1JHkb72fVWPnY-20">
          <mxGeometry relative="1" as="geometry">
            <mxPoint x="-250" y="780" as="targetPoint" />
          </mxGeometry>
        </mxCell>
        <mxCell id="FoGuGYI1JHkb72fVWPnY-20" value="" style="ellipse;whiteSpace=wrap;html=1;" vertex="1" parent="1">
          <mxGeometry x="-290" y="650" width="80" height="80" as="geometry" />
        </mxCell>
        <mxCell id="FoGuGYI1JHkb72fVWPnY-25" value="&lt;font style=&quot;font-size: 19px;&quot;&gt;&lt;b&gt;STOP&lt;/b&gt;&lt;/font&gt;" style="ellipse;whiteSpace=wrap;html=1;" vertex="1" parent="1">
          <mxGeometry x="-300" y="780" width="100" height="50" as="geometry" />
        </mxCell>
      </root>
    </mxGraphModel>
  </diagram>
</mxfile>
